# xmcd
#
# Track frame offsets:
# 150
# 12975
# 26850
# 42188
# 54454
# 67166
# 79683
# 93671
# 104059
# 114859
# 125820
# 137895
# 148733
# 160321
# 171384
# 182522
# 194785
# 207910
# 220098
# 232248
# 242748
# 255273
# 267311
# 281051
# 295414
#
# Disc length: 4211 seconds
#
#
# Revision: 0
# Processed by: cddbd v1.5.1PL0 Copyright (c) Steve Scherf et al.
# Submitted via: FreeRIP 2.942 
#
DISCID=90107119
DTITLE=Teodoro and Sampaio - Só As Melhores
DYEAR=1900
DGENRE=Sertaneja
TTITLE0=Se a Casa Cair
TTITLE1=A Gostosona
TTITLE2=Cheirinho de Mulher
TTITLE3=Coração Vira Lata
TTITLE4=Casa Assombrada
TTITLE5=Ex-Mulher
TTITLE6=Morro de Amor
TTITLE7=Conta Pra Ela
TTITLE8=Agarradinho
TTITLE9=O Gavião
TTITLE10=Velho Galã
TTITLE11=Cheira Chumbo
TTITLE12=Cantaram Minha Vizinha
TTITLE13=Passe Livre
TTITLE14=A Dormideira
TTITLE15=Senti Firmeza
TTITLE16=Vestido de Seda
TTITLE17=Casa da Alegria
TTITLE18=Na Barra da Saia
TTITLE19=O Chorão
TTITLE20=Fingindio Dormir
TTITLE21=Seu Nome
TTITLE22=Potranca Valente
TTITLE23=Água no Leite
TTITLE24=Desafio do Teodoro e Sampaio
EXTD=
EXTT0=
EXTT1=
EXTT2=
EXTT3=
EXTT4=
EXTT5=
EXTT6=
EXTT7=
EXTT8=
EXTT9=
EXTT10=
EXTT11=
EXTT12=
EXTT13=
EXTT14=
EXTT15=
EXTT16=
EXTT17=
EXTT18=
EXTT19=
EXTT20=
EXTT21=
EXTT22=
EXTT23=
EXTT24=
PLAYORDER=
